<?xml version="1.0" encoding="UTF-8"?>
<svg id="Layer_2" data-name="Layer 2" xmlns="http://www.w3.org/2000/svg" xmlns:xlink="http://www.w3.org/1999/xlink" viewBox="0 0 220.17 74.79">
  <defs>
    <style>
      .cls-1 {
        fill: url(#New_Gradient_Swatch_4);
      }
    </style>
    <linearGradient id="New_Gradient_Swatch_4" data-name="New Gradient Swatch 4" x1="144.52" y1="32.12" x2="186.15" y2="32.12" gradientUnits="userSpaceOnUse">
      <stop offset="0" stop-color="#0a6fb3"/>
      <stop offset=".45" stop-color="#00a5cf" stop-opacity=".95"/>
      <stop offset="1" stop-color="#d4ffdd" stop-opacity=".6"/>
    </linearGradient>
  </defs>
  <g id="Layer_1-2" data-name="Layer 1">
    <g>
      <path d="M21.02,43.27l-.41,10.2L1.34,25.34h18.03l11.44,17.72-6.9.21,11.33-17.93h16.38l-18.85,28.64.62-10.41,20.81,30.6h-17.31l-13.19-19.78,7.21-.82-13.39,20.6H0l21.02-30.91Z"/>
      <path d="M82.62,61.56c1.99-1.2,3.81-2.9,5.46-5.1l1.24,7.11c-1.1,2.4-2.49,4.45-4.17,6.13-1.68,1.68-3.61,2.95-5.77,3.81-2.16.86-4.52,1.29-7.06,1.29-4.95,0-8.91-1.29-11.9-3.86-2.99-2.58-4.48-6.06-4.48-10.46s1.56-8.17,4.69-10.92c3.12-2.75,7.95-4.67,14.47-5.77l14.94-2.58.1,9.99-11.54,2.47c-2.82.62-4.76,1.31-5.82,2.06-1.07.76-1.6,1.82-1.6,3.19,0,1.44.45,2.54,1.34,3.3.89.76,2.27,1.13,4.12,1.13,1.99,0,3.98-.6,5.98-1.8ZM99.31,74.18h-14.22v-7.52l-1.24-1.24v-19.99c0-3.09-.81-5.31-2.42-6.65-1.61-1.34-4.31-2.01-8.09-2.01-1.65,0-3.33.12-5.05.36-1.72.24-3.33.6-4.84,1.08v-12.88c1.85-.55,3.83-.96,5.92-1.24,2.09-.27,4.17-.41,6.23-.41,7.9,0,13.82,1.75,17.77,5.25,3.95,3.5,5.92,8.76,5.92,15.76v29.46Z"/>
      <path d="M108.5,25.34h14.83v12.57l-.93-4.53c.82-2.68,2.59-4.79,5.31-6.34,2.71-1.55,6.06-2.32,10.04-2.32h.52v14.73c-.14-.07-.29-.1-.46-.1h-.46c-3.43,0-6.32.48-8.65,1.44-2.34.96-3.92,2.27-4.74,3.92v29.46h-15.45V25.34Z"/>
      <path d="M146,15.2c-1.72-1.68-2.58-3.79-2.58-6.34s.86-4.74,2.58-6.39c1.72-1.65,3.88-2.47,6.49-2.47s4.77.82,6.49,2.47c1.72,1.65,2.58,3.78,2.58,6.39s-.86,4.65-2.58,6.34c-1.72,1.68-3.88,2.52-6.49,2.52s-4.77-.84-6.49-2.52ZM144.76,24.73h15.45v49.45h-15.45V24.73Z"/>
      <path d="M170.51,0h15.45v74.18h-15.45V0ZM182.98,43.17l17.51-17.82h19.68l-17.82,17.2-7.21,6.59-11.23,10.82-.93-16.79ZM189.99,44.92l10.71-11.95,18.96,41.21h-16.59l-13.08-29.26Z"/>
    </g>
  </g>
  <g id="gray">
    <rect class="cls-1" x="144.76" y="24.73" width="41.21" height="14.78"/>
  </g>
</svg>